<?xml version="1.0" encoding="utf-8"?>
<!-- Generator: Adobe Illustrator 25.4.1, SVG Export Plug-In . SVG Version: 6.00 Build 0)  -->
<svg version="1.1" id="Слой_1" xmlns="http://www.w3.org/2000/svg" xmlns:xlink="http://www.w3.org/1999/xlink" x="0px" y="0px"
	 viewBox="0 0 285 70" style="enable-background:new 0 0 285 70;" xml:space="preserve">
<style type="text/css">
	.st0{fill:#FFFFFF;}
</style>
<g>
	<path class="st0" d="M125.3,0.5H8.6C1.4,0.5,0,2,0,9.3v51.5c0,7.3,1.4,8.8,8.6,8.8h116.7c7.2,0,8.6-1.5,8.6-8.8V9.3
		C133.9,2.1,132.5,0.5,125.3,0.5 M32.5,21.1c0-3.6,0.7-4.4,4.3-4.4h11.7c3.6,0,4.3,0.8,4.3,4.4v11.5c0,3.6-0.7,4.4-4.3,4.4H36.8
		c-3.6,0-4.3-0.8-4.3-4.4L32.5,21.1z M8.1,21.1c0-3.6,0.7-4.4,4.3-4.4h11.7c3.6,0,4.3,0.8,4.3,4.4v11.5c0,3.6-0.8,4.4-4.3,4.4H12.4
		c-3.6,0-4.3-0.8-4.3-4.4V21.1z M77.1,57c0,3.6-0.7,4.4-4.3,4.4H12.4c-3.6,0-4.3-0.8-4.3-4.4V45.5c0-3.6,0.8-4.4,4.3-4.4h60.4
		c3.6,0,4.3,0.8,4.3,4.4L77.1,57z M77.1,32.7c0,3.6-0.7,4.4-4.3,4.4H61.1c-3.6,0-4.3-0.8-4.3-4.4V21.2c0-3.6,0.7-4.4,4.3-4.4h11.7
		c3.6,0,4.3,0.8,4.3,4.4L77.1,32.7z M101.5,57c0,3.6-0.7,4.4-4.3,4.4H85.5c-3.6,0-4.3-0.8-4.3-4.4V45.5c0-3.6,0.7-4.4,4.3-4.4h11.7
		c3.6,0,4.3,0.8,4.3,4.4V57z M125.8,57c0,3.6-0.7,4.4-4.3,4.4h-11.6c-3.6,0-4.3-0.8-4.3-4.4V45.5c0-3.6,0.7-4.4,4.3-4.4h11.7
		c3.6,0,4.3,0.8,4.3,4.4L125.8,57z M125.8,32.7c0,3.6-0.7,4.4-4.3,4.4h-36c-3.6,0-4.3-0.8-4.3-4.4V21.2c0-3.6,0.7-4.4,4.3-4.4h36
		c3.6,0,4.3,0.8,4.3,4.4L125.8,32.7z"/>
	<path class="st0" d="M175.6,22.3c0.5-1.1,1.3-2.1,2.3-2.9c0.9-0.6,1.9-0.9,3-0.9c1.5-0.1,3.1,0.5,4.1,1.6c1,1.2,1.5,2.7,1.4,4.3
		v31.6c0.1,1.2-0.4,2.4-1.3,3.3c-0.9,0.9-2.2,1.3-3.4,1.2c-2.4,0.1-4.4-1.7-4.6-4c0-0.2,0-0.4,0-0.5V36.4L170.4,50
		c-0.4,0.9-1,1.7-1.9,2.2c-0.7,0.4-1.5,0.6-2.3,0.6c-0.9,0-1.7-0.2-2.4-0.6c-0.8-0.5-1.5-1.3-1.9-2.2l-6.6-13.5v19.6
		c0.1,1.2-0.4,2.4-1.3,3.3c-0.9,0.9-2.2,1.3-3.4,1.2c-2.4,0.1-4.4-1.7-4.6-4c0-0.2,0-0.4,0-0.5V24.5c-0.1-1.6,0.4-3.1,1.4-4.3
		c1-1.1,2.5-1.7,4.1-1.6c1.1,0,2.1,0.3,3,0.9c1,0.7,1.8,1.7,2.3,2.9l9.4,19.1L175.6,22.3z"/>
	<path class="st0" d="M194.8,58.8c-0.9-0.9-1.4-2.2-1.3-3.4v-32c0-1.3,0.5-2.6,1.4-3.4c1-0.9,2.3-1.4,3.6-1.3
		c1.3-0.1,2.6,0.4,3.6,1.3c0.9,0.9,1.4,2.2,1.3,3.4v28.5h10.4V23.3c-0.1-1.3,0.4-2.5,1.3-3.4c1-0.9,2.3-1.4,3.7-1.3
		c1.3-0.1,2.6,0.4,3.5,1.3c0.9,0.9,1.4,2.2,1.3,3.4v28.5H234V23.3c-0.1-1.3,0.4-2.5,1.3-3.4c2.1-1.7,5.1-1.7,7.2,0
		c0.9,0.9,1.4,2.2,1.3,3.4v32c0.1,2.5-1.7,4.6-4.2,4.7c-0.2,0-0.4,0-0.5,0h-40.9C196.9,60.1,195.7,59.6,194.8,58.8z"/>
	<path class="st0" d="M252.2,59.3c-0.9-0.9-1.3-2.2-1.3-3.4v-32c-0.2-2.5,1.7-4.6,4.1-4.7c0.2,0,0.4,0,0.6,0h23.7
		c2.5-0.1,4.6,1.7,4.7,4.2c0,0.2,0,0.4,0,0.5v32c0.1,2.5-1.8,4.6-4.2,4.7c-0.2,0-0.3,0-0.5,0c-1.4,0.1-2.7-0.4-3.8-1.3
		c-0.9-0.9-1.4-2.1-1.3-3.4V27.4h-13.5v28.6c0.1,1.3-0.4,2.5-1.3,3.4c-0.9,0.9-2.2,1.4-3.5,1.3C254.5,60.7,253.2,60.3,252.2,59.3z"
		/>
</g>
</svg>
